<svg width="69" height="69" viewBox="0 0 69 69" fill="none" xmlns="http://www.w3.org/2000/svg">
<path d="M16.1003 20.7C19.2708 20.7 21.8503 18.1206 21.8503 14.95C21.8503 14.7832 21.8146 14.6257 21.8009 14.4624L32.5418 7.62787C33.3249 9.87387 35.441 11.5 37.9502 11.5C40.6608 11.5 42.9263 9.60825 43.5301 7.07937L55.2175 9.02754C55.2163 9.08617 55.2002 9.14021 55.2002 9.20004C55.2002 12.3705 57.7796 14.9501 60.9503 14.9501C64.1208 14.9501 66.7003 12.3707 66.7003 9.20004C66.7003 6.02955 64.1209 3.45 60.9503 3.45C58.6456 3.45 56.6665 4.82191 55.7512 6.78383L43.6003 4.75871C43.1275 2.06084 40.7815 0 37.9502 0C35.0109 0 32.6073 2.22525 32.2681 5.075L21.1061 12.1785C20.1241 10.4121 18.261 9.20004 16.1001 9.20004C12.9296 9.20004 10.3501 11.7795 10.3501 14.9501C10.3502 18.1206 12.9296 20.7 16.1003 20.7Z" fill="white"/>
<path d="M20.7002 44.6344C20.7002 43.4855 19.7651 42.5506 18.6164 42.5506H11.2839C10.1351 42.5506 9.2002 43.4856 9.2002 44.6344V58.6505H20.7002V44.6344Z" fill="white"/>
<path d="M26.2346 21.85C25.0857 21.85 24.1509 22.785 24.1509 23.9337V58.65H35.6508V23.9338C35.6508 22.785 34.7148 21.8501 33.5659 21.8501H26.2346V21.85Z" fill="white"/>
<path d="M41.1843 33.35C40.0355 33.35 39.1006 34.285 39.1006 35.4338V58.65H50.6005V35.4338C50.6005 34.2849 49.6645 33.35 48.5156 33.35H41.1843V33.35Z" fill="white"/>
<path d="M63.4655 19.55H56.1343C54.9854 19.55 54.0493 20.485 54.0493 21.6338V58.65H65.5493V21.6338C65.5494 20.4849 64.6144 19.55 63.4655 19.55Z" fill="white"/>
</svg>
