<svg width="59" height="59" viewBox="0 0 59 59" fill="none" xmlns="http://www.w3.org/2000/svg">
<g clip-path="url(#clip0_313_108)">
<path d="M29.5002 31.3671C36.9005 31.3671 42.8998 24.3452 42.8998 15.6835C42.8998 3.67184 36.9007 0 29.5002 0C22.0997 0 16.1006 3.67184 16.1006 15.6835C16.1006 24.3452 22.0998 31.3671 29.5002 31.3671Z" fill="#7CBB4A"/>
<path d="M58.4715 55.1988L51.7114 39.9701C51.4629 39.4101 51.0317 38.9515 50.4885 38.6687L39.7236 33.0652C39.0734 32.7266 38.3143 32.6667 37.6193 32.8987C36.9242 33.1306 36.3532 33.6345 36.0364 34.2952L31.462 43.8418L32.0381 38.6489C32.0561 38.4865 32.0145 38.3228 31.9211 38.1885L30.0553 35.5063C30.0488 35.4971 30.0413 35.4885 30.0345 35.4799L31.6481 34.2548C31.7871 34.1492 31.8689 33.9847 31.8689 33.8099C31.8689 33.1563 31.3369 32.6243 30.6832 32.6243H28.3174C27.6637 32.6243 27.1318 33.1563 27.1318 33.8099C27.1318 33.9847 27.2135 34.1492 27.3526 34.2548L28.9661 35.4799C28.9592 35.4885 28.9518 35.4971 28.9453 35.5063L27.0795 38.1885C26.9861 38.3228 26.9444 38.4865 26.9625 38.6489L27.5385 43.8418L22.964 34.2952C22.6474 33.6345 22.0763 33.1306 21.3812 32.8987C20.6863 32.6667 19.9268 32.7269 19.2769 33.0652L8.51203 38.6687C7.96878 38.9515 7.53762 39.4101 7.28912 39.9701L0.528952 55.1988C0.157683 56.0355 0.234614 57.0027 0.733379 57.7701C1.23214 58.5373 2.08528 59.0002 3.00047 59.0002H56.0002C56.9153 59.0002 57.7683 58.5373 58.2672 57.7699C58.766 57.0026 58.8428 56.0353 58.4715 55.1988Z" fill="#7CBB4A"/>
</g>
<defs>
<clipPath id="clip0_313_108">
<rect width="59" height="59" fill="white"/>
</clipPath>
</defs>
</svg>
