<svg width="59" height="59" viewBox="0 0 59 59" fill="none" xmlns="http://www.w3.org/2000/svg">
<path d="M47.4099 0H11.5904C9.43951 0 7.6958 1.74371 7.6958 3.89464V55.1054C7.6958 57.2563 9.43951 59 11.5904 59H47.4099C49.5608 59 51.3045 57.2563 51.3045 55.1054V3.89464C51.3045 1.74371 49.5608 0 47.4099 0ZM13.8785 44.0717V38.5314C13.8785 38.0887 14.2372 37.73 14.6799 37.73H20.2202C20.6628 37.73 21.0216 38.0887 21.0216 38.5314V44.0717C21.0216 44.5143 20.6628 44.8731 20.2202 44.8731H14.6799C14.2372 44.8731 13.8785 44.5142 13.8785 44.0717ZM13.8785 32.913V27.3727C13.8785 26.93 14.2372 26.5713 14.6799 26.5713H20.2202C20.6628 26.5713 21.0216 26.93 21.0216 27.3727V32.913C21.0216 33.3556 20.6628 33.7144 20.2202 33.7144H14.6799C14.2372 33.7144 13.8785 33.3555 13.8785 32.913ZM39.6188 53.9978H19.3815C17.9647 53.9978 16.8163 52.8494 16.8163 51.4326C16.8163 50.0158 17.9647 48.8674 19.3815 48.8674H39.6188C41.0355 48.8674 42.184 50.0158 42.184 51.4326C42.184 52.8494 41.0355 53.9978 39.6188 53.9978ZM26.73 37.7299H32.2703C32.713 37.7299 33.0717 38.0886 33.0717 38.5312V44.0716C33.0717 44.5142 32.713 44.873 32.2703 44.873H26.73C26.2873 44.873 25.9286 44.5142 25.9286 44.0716V38.5312C25.9286 38.0887 26.2873 37.7299 26.73 37.7299ZM25.9286 32.913V27.3727C25.9286 26.93 26.2873 26.5713 26.73 26.5713H32.2703C32.713 26.5713 33.0717 26.93 33.0717 27.3727V32.913C33.0717 33.3556 32.713 33.7144 32.2703 33.7144H26.73C26.2873 33.7144 25.9286 33.3555 25.9286 32.913ZM44.3204 44.8731H38.7801C38.3374 44.8731 37.9787 44.5143 37.9787 44.0717V38.5314C37.9787 38.0887 38.3374 37.73 38.7801 37.73H44.3204C44.7631 37.73 45.1218 38.0887 45.1218 38.5314V44.0717C45.1218 44.5143 44.7631 44.8731 44.3204 44.8731ZM44.3204 33.7144H38.7801C38.3374 33.7144 37.9787 33.3556 37.9787 32.913V27.3727C37.9787 26.93 38.3374 26.5713 38.7801 26.5713H44.3204C44.7631 26.5713 45.1218 26.93 45.1218 27.3727V32.913C45.1218 33.3556 44.7631 33.7144 44.3204 33.7144ZM45.4045 19.1926C45.4045 20.7059 44.1777 21.9326 42.6645 21.9326H16.336C14.8226 21.9326 13.5958 20.7058 13.5958 19.1926V7.99873C13.5958 6.48551 14.8226 5.2587 16.336 5.2587H42.6645C44.1777 5.2587 45.4045 6.48551 45.4045 7.99873V19.1926Z" fill="#7CBB4A"/>
</svg>
