<svg width="57" height="58" viewBox="0 0 57 58" fill="none" xmlns="http://www.w3.org/2000/svg">
<g clip-path="url(#clip0_313_130)">
<path d="M54.7769 20.0593C54.3278 14.2629 51.6896 8.99195 47.3461 5.21654C43.4774 1.85181 38.5465 0 33.4622 0C27.191 0 21.2611 2.77895 17.1944 7.6251C13.4821 12.0435 11.6842 17.6692 12.1331 23.4648C12.3112 25.7721 12.8489 27.9884 13.6896 30.0669L9.07197 35.5686C7.98055 36.8672 8.13276 38.8174 9.40756 39.928L9.95518 40.4037L3.58565 47.9895C1.44634 50.5375 1.74336 54.3682 4.24736 56.5451C6.75032 58.722 10.5154 58.4221 12.6543 55.8752L19.0236 48.2916L19.5693 48.7667C20.1839 49.2997 20.9797 49.5617 21.7829 49.4978C22.586 49.4333 23.3319 49.0483 23.8554 48.4233L28.4865 42.9105C30.1003 43.305 31.7612 43.5264 33.4437 43.5264C39.7131 43.5264 45.645 40.7473 49.7155 35.9007C53.426 31.4795 55.2218 25.8548 54.7769 20.0593ZM45.3815 32.1324C42.3941 35.6873 38.0453 37.7263 33.4435 37.7263C29.7179 37.7263 26.1023 36.3668 23.2651 33.8972C20.0775 31.1298 18.1424 27.2633 17.8142 23.0118C17.486 18.7598 18.8048 14.6329 21.5265 11.3936C24.5117 7.83861 28.8605 5.79949 33.4621 5.79949C37.1881 5.79949 40.8056 7.15859 43.6449 9.62673C46.8303 12.3962 48.7656 16.2627 49.0917 20.5139C49.422 24.764 48.1032 28.8903 45.3815 32.1324Z" fill="#7CBB4A"/>
<path d="M33.4553 17.5762C31.1845 17.5762 29.3379 19.4549 29.3379 21.7615C29.3379 24.069 31.1845 25.9472 33.4553 25.9472C35.7228 25.9472 37.5667 24.069 37.5667 21.7615C37.5666 19.455 35.7227 17.5762 33.4553 17.5762Z" fill="#7CBB4A"/>
<path d="M44.1453 23.8157L42.6538 22.9401C42.7025 22.549 42.7724 22.1662 42.7724 21.7616C42.7724 21.3579 42.7025 20.9749 42.6538 20.584L44.1453 19.7064C44.5168 19.489 44.7911 19.1266 44.9026 18.7037C45.014 18.2809 44.9565 17.8296 44.739 17.4501L42.7652 13.9725C42.3201 13.1831 41.3255 12.9114 40.5462 13.3663L39.0693 14.2386C38.4423 13.7553 37.7799 13.3268 37.0507 13.0154V11.3121C37.0507 10.3985 36.3237 9.66064 35.4259 9.66064H31.4812C30.5833 9.66064 29.8575 10.3984 29.8575 11.3121V13.0153C29.1245 13.3267 28.4641 13.7552 27.8409 14.2385L26.3586 13.3661C25.9857 13.1477 25.54 13.0873 25.1245 13.2021C24.7088 13.3154 24.3566 13.5911 24.1391 13.9725L22.1674 17.4501C21.7183 18.2394 21.9851 19.2507 22.7611 19.7064L24.2526 20.584C24.2046 20.9749 24.1358 21.358 24.1358 21.7616C24.1358 22.1662 24.2046 22.549 24.2526 22.9401L22.7611 23.8157C21.9851 24.2712 21.7184 25.2825 22.1674 26.0741L24.1391 29.5517C24.3566 29.9311 24.7089 30.2087 25.1245 30.3222C25.54 30.4348 25.9857 30.3763 26.3586 30.1579L27.8409 29.2857C28.464 29.7689 29.1245 30.1973 29.8575 30.5108V32.2122C29.8575 33.1256 30.5833 33.8637 31.4812 33.8637H35.4259C36.3237 33.8637 37.0507 33.1257 37.0507 32.2122V30.5108C37.7819 30.1973 38.4424 29.769 39.0693 29.2857L40.5462 30.1579C40.9213 30.3763 41.3661 30.4349 41.7818 30.3222C42.1975 30.2087 42.5536 29.9311 42.7652 29.5517L44.739 26.0741C45.1887 25.2845 44.9213 24.2725 44.1453 23.8157ZM33.4552 27.8805C30.1376 27.8805 27.438 25.136 27.438 21.7616C27.438 18.3881 30.1376 15.643 33.4552 15.643C36.7705 15.643 39.4664 18.3881 39.4664 21.7616C39.4662 25.1359 36.7705 27.8805 33.4552 27.8805Z" fill="#7CBB4A"/>
</g>
<defs>
<clipPath id="clip0_313_130">
<rect width="57" height="58" fill="white"/>
</clipPath>
</defs>
</svg>
