<svg width="59" height="59" viewBox="0 0 59 59" fill="none" xmlns="http://www.w3.org/2000/svg">
<path d="M58.8029 40.7169C58.6383 40.2104 58.1663 39.8663 57.6328 39.8663H47.625L44.5325 30.3477C44.203 29.3349 42.5241 29.3349 42.1946 30.3477L39.1021 39.8663H29.0944C28.561 39.8663 28.089 40.2105 27.9242 40.7169C27.7595 41.2233 27.9389 41.7788 28.3716 42.091L36.4816 47.9836L33.5857 57.4087C33.4308 57.9152 33.6176 58.4657 34.0479 58.7706C34.4781 59.0804 35.0583 59.0754 35.486 58.7608L43.3648 52.9863L51.2437 58.7608C51.4599 58.9181 51.7132 58.9993 51.9688 58.9993C52.2196 58.9993 52.4679 58.9231 52.6818 58.7731C53.1145 58.4657 53.2988 57.9152 53.144 57.4087L50.248 47.9836L58.3555 42.091C58.7858 41.7788 58.9676 41.2233 58.8029 40.7169Z" fill="#7CBB4A"/>
<path d="M28.6174 14.7499C32.0123 14.7499 34.7631 11.9991 34.7631 8.60422C34.7631 5.20934 32.0123 2.4585 28.6174 2.4585C25.2225 2.4585 22.4717 5.20934 22.4717 8.60422C22.4717 11.9991 25.2225 14.7499 28.6174 14.7499Z" fill="#7CBB4A"/>
<path d="M11.198 12.2916C14.5928 12.2916 17.3437 9.54072 17.3437 6.14584C17.3437 2.75084 14.5928 0 11.198 0C7.80309 0 5.05225 2.75084 5.05225 6.14572C5.05225 9.54072 7.80309 12.2916 11.198 12.2916Z" fill="#7CBB4A"/>
<path d="M32.9046 48.4163L26.926 44.0799C25.8321 43.2858 25.3084 41.9411 25.5198 40.5547L26.6162 38.588C26.6481 38.5314 26.6507 38.47 26.6728 38.4086C27.371 37.7694 28.2166 37.408 29.0918 37.408H36.42C36.9534 37.408 37.4254 37.0638 37.5902 36.5575L39.1192 31.8498C39.1758 31.6778 39.193 31.4934 39.1708 31.3139L38.0228 22.4197C37.6245 19.3518 34.9327 17.041 31.7565 17.041H25.4781C24.8438 17.041 24.2072 17.1443 23.536 17.3557C22.9018 17.5573 22.5404 18.226 22.7224 18.8652C22.8675 19.374 22.9829 19.8976 23.0469 20.4384L24.6743 34.7138C24.7726 35.5841 24.6915 36.474 24.4359 37.3541C24.4236 37.3934 24.4285 37.4328 24.4211 37.4721L23.3567 39.3822C23.3346 39.4215 23.3346 39.4657 23.3174 39.5051C23.2756 39.5641 23.0716 39.8567 23.0593 39.8788C22.752 40.223 22.371 40.5475 21.9015 40.8671C21.5351 41.1178 21.3312 41.5431 21.368 41.9856L22.4767 55.2433C22.5283 55.88 23.0617 56.3692 23.7009 56.3692H30.4219C30.9627 56.3692 31.4396 56.0177 31.5969 55.5014L33.3571 49.7711C33.5119 49.2669 33.3299 48.7236 32.9046 48.4163Z" fill="#7CBB4A"/>
<path d="M22.2332 34.9964L20.6034 20.7186C20.2149 17.3138 17.5206 14.7473 14.3371 14.7473H8.06116C4.87762 14.7473 2.18093 17.3138 1.7949 20.7186L0.165046 34.9964C0.0273421 36.1911 0.396088 37.3761 1.17541 38.2487C1.84653 39.001 2.73647 39.4361 3.70005 39.4902L5.05703 57.8586C5.1037 58.5003 5.63965 58.9968 6.28369 58.9968H16.1169C16.7609 58.9968 17.2944 58.5003 17.3435 57.8586L18.7005 39.4902C19.6666 39.4361 20.554 38.9985 21.2251 38.2487C22.0022 37.3785 22.3685 36.1911 22.2332 34.9964Z" fill="#7CBB4A"/>
</svg>
