<svg width="66" height="53" viewBox="0 0 66 53" fill="none" xmlns="http://www.w3.org/2000/svg">
<path d="M0 39.7396L6.6 39.7438C8.43047 39.7438 9.9 38.2646 9.9 36.4282V13.2811H0V39.7396ZM4.95 33.1354C5.85234 33.1354 6.6 33.8722 6.6 34.7906C6.6 35.6955 5.85234 36.4458 4.95 36.4458C4.04766 36.4458 3.3 35.6922 3.3 34.7916C3.3 33.8703 4.04766 33.1354 4.95 33.1354ZM35.97 6.625C35.1511 6.625 34.3551 6.93234 33.7507 7.48708L23.6053 16.8006C23.595 16.8213 23.595 16.842 23.5744 16.842C21.8625 18.4568 21.8934 21.0344 23.3578 22.6389C24.6727 23.9949 27.4189 24.4628 29.1462 22.9235C29.1638 22.908 29.1741 22.908 29.1844 22.8977L37.422 15.3307C38.0923 14.7229 39.1493 14.7617 39.7547 15.4342C40.3734 16.1066 40.3219 17.1546 39.6516 17.7757L36.9579 20.2466L51.975 32.4729C52.2715 32.7312 52.5422 32.99 52.7871 33.2743V13.1568C48.561 8.91684 42.8376 6.54426 36.8646 6.54426L35.97 6.625ZM34.5056 22.5043L31.4119 25.3499C28.3439 28.1563 23.6517 27.885 20.9138 24.8975C18.15 21.8625 18.3666 17.1525 21.3778 14.3783L29.8134 6.625H29.1328C23.1722 6.625 17.4384 9.01414 13.2206 13.2396L13.2 36.4168L15.082 36.4206L24.4148 44.8903C27.2508 47.2059 31.4016 46.766 33.6961 43.9332L35.5647 45.5107C37.2023 46.7633 39.6258 46.5977 40.9664 44.9548L44.2025 40.9591L44.7567 41.4247C46.1746 42.5633 48.2505 42.3565 49.3973 40.9332L50.3809 39.7138C51.5276 38.2904 51.3127 36.217 49.8968 35.0628L34.5056 22.5043ZM56.1 13.2914V36.4375C56.1 38.2614 57.5695 39.7552 59.3072 39.7552L66 39.75V13.2604L56.1 13.2914ZM61.05 36.4375C60.1477 36.4375 59.4 35.6874 59.4 34.7823C59.4 33.8636 60.1477 33.1271 61.05 33.1271C61.9523 33.1271 62.7 33.8703 62.7 34.7916C62.7 35.6922 61.9575 36.4375 61.05 36.4375Z" fill="white"/>
</svg>
