<svg width="59" height="59" viewBox="0 0 59 59" fill="none" xmlns="http://www.w3.org/2000/svg">
<path d="M32.2156 25.3933H26.6733L28.4263 38.3089H30.4626L32.2156 25.3933Z" fill="#7CBB4A"/>
<path d="M39.5731 42.075H19.4272V47.044H39.5731V42.075Z" fill="#7CBB4A"/>
<path d="M29.5 0C18.1906 0 9.02246 9.1681 9.02246 20.4775C9.02246 28.125 13.2154 34.7924 19.427 38.309H24.6257L22.3616 21.6274H36.5273L34.2632 38.309H39.573C45.7847 34.7924 49.9775 28.125 49.9775 20.4775C49.9775 9.1681 40.8094 0 29.5 0Z" fill="#7CBB4A"/>
<path d="M29.5 59C34.4192 59 38.5125 55.4728 39.3946 50.8101H19.6055C20.4876 55.4728 24.5808 59 29.5 59Z" fill="#7CBB4A"/>
</svg>
