<svg width="58" height="58" viewBox="0 0 58 58" fill="none" xmlns="http://www.w3.org/2000/svg">
<path d="M29 0C16.9129 0 7.25 9.66289 7.25 21.75C7.25 25.9301 8.49609 29.1586 10.6598 32.4324L26.7117 56.7879C27.1988 57.5242 28.0371 58 29 58C29.9629 58 30.8125 57.5129 31.2883 56.7879L47.3402 32.4324C49.5039 29.1586 50.75 25.9301 50.75 21.75C50.75 9.66289 41.0871 0 29 0ZM29 33.8258C22.3277 33.8258 16.9129 28.4109 16.9129 21.7273C16.9129 15.0438 22.3277 9.62891 29 9.62891C35.6723 9.62891 41.0871 15.0438 41.0871 21.7273C41.0871 28.4109 35.6723 33.8258 29 33.8258ZM29 14.5C24.9898 14.5 21.75 17.7398 21.75 21.75C21.75 25.7602 24.9898 29 29 29C33.0102 29 36.25 25.7602 36.25 21.75C36.25 17.7398 33.0102 14.5 29 14.5Z" fill="#7CBB4A"/>
</svg>
