<svg width="23" height="23" viewBox="0 0 23 23" fill="none" xmlns="http://www.w3.org/2000/svg">
<g clip-path="url(#clip0_313_281)">
<path d="M6.07888 19.6986L6.45487 19.8845C8.02175 20.8136 9.77649 21.2473 11.5313 21.2473C17.0464 21.2473 21.5587 16.7872 21.5587 11.336C21.5587 8.73436 20.4932 6.1946 18.6132 4.33621C16.733 2.47783 14.2261 1.4248 11.5313 1.4248C6.01626 1.4248 1.50385 5.88485 1.56656 11.398C1.56656 13.2563 2.1306 15.0528 3.07064 16.6013L3.3213 16.9731L2.31865 20.6279L6.07888 19.6986Z" fill="#00E676"/>
<path d="M19.6787 3.34503C17.5479 1.177 14.6024 0 11.5942 0C5.20177 0 0.0627109 5.14143 0.125332 11.3979C0.125332 13.3801 0.689371 15.3005 1.6295 17.0349L0 22.9197L6.0791 21.3711C7.77122 22.3003 9.65129 22.7339 11.5315 22.7339C17.8613 22.7339 23.0004 17.5924 23.0004 11.3361C23.0004 8.30069 21.8096 5.45118 19.6788 3.34503H19.6787ZM11.5942 20.8137C9.90204 20.8137 8.20992 20.3801 6.76847 19.5129L6.39247 19.327L2.75757 20.2562L3.69761 16.7253L3.44695 16.3536C0.689371 11.9556 2.00549 6.13256 6.51781 3.40693C11.0301 0.681386 16.8586 1.98226 19.6161 6.44231C22.3736 10.9024 21.0575 16.6633 16.5453 19.3889C15.1037 20.3181 13.349 20.8136 11.5942 20.8136V20.8137ZM17.1092 13.9378L16.4198 13.6281C16.4198 13.6281 15.4172 13.1945 14.7904 12.8847C14.7277 12.8847 14.6651 12.8227 14.6024 12.8227C14.4144 12.8227 14.289 12.8847 14.1637 12.9467C14.1637 12.9467 14.1011 13.0086 13.2237 13.9997C13.1609 14.1236 13.0356 14.1856 12.9103 14.1856H12.8476C12.7849 14.1856 12.6596 14.1236 12.5969 14.0617L12.2835 13.9378C11.5942 13.6281 10.9675 13.2563 10.4661 12.7608C10.3407 12.6369 10.1527 12.5131 10.0274 12.3892C9.58867 11.9556 9.14996 11.4599 8.83667 10.9024L8.77396 10.7786C8.71134 10.7166 8.71134 10.6547 8.64863 10.5308C8.64863 10.4069 8.64863 10.283 8.71134 10.2211C8.71134 10.2211 8.962 9.91131 9.14996 9.72554C9.27538 9.60157 9.338 9.41579 9.46333 9.29191C9.58867 9.10605 9.65138 8.85828 9.58867 8.67242C9.52604 8.36267 8.77396 6.69016 8.58601 6.31852C8.46059 6.13265 8.33534 6.07076 8.1473 6.00877H7.45793C7.33251 6.00877 7.20727 6.07076 7.08184 6.07076L7.01913 6.13265C6.8938 6.19464 6.76847 6.31852 6.64314 6.38041C6.51781 6.50438 6.45509 6.62817 6.32976 6.75214C5.89106 7.30965 5.64039 7.99103 5.64039 8.67242C5.64039 9.16794 5.76572 9.66355 5.95377 10.0972L6.01648 10.283C6.58052 11.4599 7.33251 12.5131 8.33534 13.4422L8.58601 13.69C8.77396 13.8758 8.962 13.9997 9.08734 14.1855C10.4035 15.3006 11.9075 16.1059 13.5996 16.5395C13.7877 16.6014 14.0384 16.6014 14.2264 16.6634H14.8531C15.1664 16.6634 15.5424 16.5395 15.7932 16.4156C15.9811 16.2917 16.1065 16.2917 16.2318 16.1678L16.3572 16.0439C16.4826 15.92 16.6079 15.8581 16.7332 15.7342C16.8586 15.6103 16.9839 15.4865 17.0466 15.3625C17.1719 15.1147 17.2345 14.805 17.2973 14.4953V14.0617C17.2973 14.0617 17.2345 13.9997 17.1092 13.9378Z" fill="white"/>
</g>
<defs>
<clipPath id="clip0_313_281">
<rect width="23" height="23" fill="white"/>
</clipPath>
</defs>
</svg>
