<svg width="59" height="59" viewBox="0 0 59 59" fill="none" xmlns="http://www.w3.org/2000/svg">
<g clip-path="url(#clip0_313_47)">
<path d="M36.875 44.9875C35.7687 44.9875 35.0312 44.6188 33.925 44.25L29.5 42.4062L25.075 44.25C24.3375 44.6188 23.2313 44.9875 22.125 44.9875C21.3875 44.9875 21.0188 44.9875 20.2812 44.6188L18.4375 59L29.5 51.625L40.5625 59L38.35 44.6188C37.9812 44.9875 37.2438 44.9875 36.875 44.9875Z" fill="white"/>
<path d="M47.5685 21.7562C47.1998 21.0187 47.1998 19.9125 47.5685 19.175L49.781 14.75C50.5185 13.275 49.781 11.4312 47.9373 10.6937L43.1435 8.85C42.406 8.48125 41.6685 7.74375 41.2998 7.00625L39.456 2.2125C39.0873 0.7375 37.981 0 36.8748 0C36.506 0 35.7685 0 35.3998 0.36875L30.606 2.58125C30.2373 2.58125 29.8685 2.58125 29.4998 2.58125C29.131 2.58125 28.7623 2.58125 28.3935 2.2125L23.5998 0.36875C23.231 0 22.4935 0 22.1248 0C21.0185 0 19.9123 0.7375 19.1748 1.84375L17.331 7.00625C17.331 7.74375 16.5935 8.48125 15.856 8.85L10.6935 10.6937C9.21852 11.0625 8.48102 12.9062 9.21852 14.75L11.431 19.5437C11.7998 20.2812 11.7998 21.3875 11.431 22.125L9.21852 26.55C8.48102 28.025 9.21852 29.8687 11.0623 30.6062L15.856 32.45C16.5935 32.8187 17.331 33.5562 17.6998 34.2937L19.5435 39.0875C19.9123 40.5625 21.0185 41.3 22.1248 41.3C22.4935 41.3 22.8623 41.3 23.231 40.9312L28.0248 38.7187C28.3935 38.7187 28.7623 38.35 29.131 38.35C29.4998 38.35 29.8685 38.35 30.2373 38.7187L35.031 40.9312C35.3998 41.3 35.7685 41.3 36.1373 41.3C37.2435 41.3 38.3498 40.5625 39.0873 39.4562L40.931 34.6625C41.2998 33.925 42.0373 33.1875 42.7748 32.8187L47.5685 30.975C49.0435 30.2375 50.1498 28.3937 49.4123 26.9187L47.5685 21.7562V21.7562ZM29.4998 35.4C21.3873 35.4 14.7498 28.7625 14.7498 20.65C14.7498 12.5375 21.3873 5.9 29.4998 5.9C37.6123 5.9 44.2498 12.5375 44.2498 20.65C44.2498 28.7625 37.6123 35.4 29.4998 35.4Z" fill="white"/>
<path d="M40.5625 20.65C40.5625 26.7602 35.6102 31.7125 29.5 31.7125C23.3898 31.7125 18.4375 26.7602 18.4375 20.65C18.4375 14.5398 23.3898 9.5875 29.5 9.5875C35.6102 9.5875 40.5625 14.5398 40.5625 20.65Z" fill="white"/>
</g>
<defs>
<clipPath id="clip0_313_47">
<rect width="59" height="59" fill="white"/>
</clipPath>
</defs>
</svg>
