<svg width="63" height="63" viewBox="0 0 63 63" fill="none" xmlns="http://www.w3.org/2000/svg">
<path d="M31.9367 1.22633C28.8078 1.22618 25.7492 2.15385 23.1475 3.89205C20.5459 5.63025 18.5181 8.10089 17.3206 10.9915C16.1232 13.8822 15.8098 17.063 16.4201 20.1318C17.0304 23.2006 18.537 26.0195 20.7494 28.232C22.9618 30.4445 25.7806 31.9512 28.8494 32.5617C31.9181 33.1722 35.0989 32.8589 37.9897 31.6616C40.8804 30.4643 43.3511 28.4366 45.0895 25.8351C46.8278 23.2335 47.7556 20.1749 47.7556 17.046C47.7556 12.8505 46.089 8.82684 43.1224 5.86009C40.1558 2.89335 36.1322 1.22654 31.9367 1.22633V1.22633ZM30.6981 15.9259H33.1302C34.2201 15.9249 35.2659 16.3569 36.0373 17.1269C36.8088 17.8969 37.2427 18.9419 37.2438 20.0318C37.2448 21.1218 36.8128 22.1676 36.0428 22.939C35.2727 23.7105 34.2278 24.1444 33.1378 24.1454V26.1702C33.1421 26.3474 33.111 26.5236 33.0461 26.6886C32.9813 26.8536 32.8842 27.0039 32.7604 27.1307C32.6366 27.2576 32.4887 27.3584 32.3253 27.4272C32.162 27.496 31.9866 27.5315 31.8093 27.5315C31.6321 27.5315 31.4566 27.496 31.2933 27.4272C31.13 27.3584 30.9821 27.2576 30.8583 27.1307C30.7345 27.0039 30.6373 26.8536 30.5725 26.6886C30.5077 26.5236 30.4765 26.3474 30.4808 26.1702V24.1459H27.7084C27.356 24.1459 27.018 24.0059 26.7687 23.7567C26.5195 23.5075 26.3795 23.1695 26.3795 22.817C26.3795 22.4646 26.5195 22.1266 26.7687 21.8773C27.018 21.6281 27.356 21.4881 27.7084 21.4881H33.1302C33.3223 21.4904 33.5129 21.4545 33.691 21.3825C33.8691 21.3105 34.0312 21.2039 34.1678 21.0689C34.3045 20.9338 34.4129 20.773 34.487 20.5957C34.561 20.4185 34.5991 20.2283 34.5991 20.0362C34.5991 19.8441 34.561 19.6539 34.487 19.4766C34.4129 19.2993 34.3045 19.1385 34.1678 19.0034C34.0312 18.8684 33.8691 18.7618 33.691 18.6898C33.5129 18.6179 33.3223 18.582 33.1302 18.5842H30.6981C29.5721 18.5867 28.4898 18.1485 27.6827 17.3632C26.8757 16.578 26.4079 15.5081 26.3796 14.3825C26.3512 13.2568 26.7644 12.1648 27.5308 11.3399C28.2973 10.515 29.3561 10.0227 30.4808 9.96847V7.92205C30.4765 7.74487 30.5077 7.56861 30.5725 7.40365C30.6373 7.2387 30.7345 7.08837 30.8583 6.96153C30.9821 6.83469 31.13 6.73389 31.2933 6.66507C31.4566 6.59625 31.6321 6.5608 31.8093 6.5608C31.9866 6.5608 32.162 6.59625 32.3253 6.66507C32.4887 6.73389 32.6366 6.83469 32.7604 6.96153C32.8842 7.08837 32.9813 7.2387 33.0461 7.40365C33.111 7.56861 33.1421 7.74487 33.1378 7.92205V9.94603H36.165C36.5174 9.94603 36.8554 10.086 37.1047 10.3353C37.3539 10.5845 37.4939 10.9225 37.4939 11.2749C37.4939 11.6274 37.3539 11.9654 37.1047 12.2146C36.8554 12.4638 36.5174 12.6038 36.165 12.6038H30.6981C30.2576 12.6038 29.8351 12.7788 29.5236 13.0903C29.2121 13.4018 29.0371 13.8243 29.0371 14.2648C29.0371 14.7053 29.2121 15.1277 29.5236 15.4392C29.8351 15.7507 30.2576 15.9257 30.6981 15.9257V15.9259Z" fill="white"/>
<path d="M14.8697 36.162H8.4144C8.27946 36.162 8.14585 36.1886 8.02118 36.2402C7.89652 36.2919 7.78326 36.3676 7.68786 36.463C7.59247 36.5584 7.51682 36.6717 7.46523 36.7964C7.41364 36.9211 7.38713 37.0548 7.38721 37.1897V59.2211C7.38723 59.4935 7.49547 59.7547 7.6881 59.9474C7.88073 60.14 8.14199 60.2482 8.4144 60.2482H14.8697C15.4635 60.2481 16.0329 60.0121 16.4527 59.5923C16.8725 59.1724 17.1083 58.603 17.1083 58.0092V38.4005C17.1082 37.8068 16.8723 37.2375 16.4525 36.8177C16.0327 36.398 15.4634 36.1621 14.8697 36.162V36.162Z" fill="white"/>
<path d="M55.4475 38.7491C55.1063 38.2295 54.641 37.8031 54.0937 37.5082C53.5464 37.2133 52.9344 37.0594 52.3127 37.0601H49.7829C48.6974 37.0579 47.6359 37.379 46.7337 37.9827C45.8316 38.5863 45.1298 39.445 44.7178 40.4492C44.4732 41.033 44.1324 41.5716 43.7096 42.0426C42.9911 43.1459 42.0189 44.0611 40.8743 44.7118C39.7297 45.3624 38.4459 45.7295 37.1304 45.7825L29.637 45.783C29.2846 45.783 28.9466 45.643 28.6974 45.3938C28.4481 45.1445 28.3081 44.8065 28.3081 44.4541C28.3081 44.1016 28.4481 43.7636 28.6974 43.5144C28.9466 43.2652 29.2846 43.1252 29.637 43.1252H37.0949C38.053 43.1006 38.984 42.8011 39.7767 42.2623V42.2173C39.7793 41.541 39.6484 40.8709 39.3914 40.2453C39.1344 39.6198 38.7565 39.0511 38.2792 38.572C37.802 38.0929 37.2348 37.7127 36.6103 37.4532C35.9858 37.1938 35.3162 37.0602 34.6399 37.0601H29.1412C28.1365 37.0572 27.1411 37.2532 26.2124 37.6367C25.2837 38.0202 24.4401 38.5837 23.7301 39.2947L23.5897 39.4345C22.5493 40.4733 21.2134 41.1653 19.7646 41.4158V56.0944H39.8177C42.791 56.0963 45.6994 55.2255 48.1824 53.59C50.6654 51.9545 52.6138 49.6262 53.786 46.8937L55.7615 42.2958C56.0078 41.7251 56.1081 41.102 56.0533 40.4828C55.9985 39.8635 55.7903 39.2677 55.4475 38.7491Z" fill="white"/>
</svg>
